<?xml version="1.0" encoding="utf-8"?>
<!-- Generator: Adobe Illustrator 16.0.0, SVG Export Plug-In . SVG Version: 6.00 Build 0)  -->
<!DOCTYPE svg PUBLIC "-//W3C//DTD SVG 1.1//EN" "http://www.w3.org/Graphics/SVG/1.1/DTD/svg11.dtd"[]>
<svg version="1.1" id="Layer_1" xmlns="http://www.w3.org/2000/svg" xmlns:xlink="http://www.w3.org/1999/xlink" x="0px" y="0px" width="295.333px" height="43.518px" viewBox="65.833 363.833 295.333 43.518" enable-background="new 65.833 363.833 295.333 43.518" xml:space="preserve">
  <g>
    <path fill="#ED1C24" d="M217.907,367.781c-2.804,0-6.12,2.696-8.863,7.22c-2.853,4.688-4.555,10.494-4.555,15.53
		c0,7.377,4.14,14.82,13.418,14.82c9.266,0,13.418-7.443,13.418-14.82c0-5.042-1.703-10.843-4.543-15.53
		C224.014,370.477,220.699,367.781,217.907,367.781" />
    <polygon fill="#ED1C24" points="290.358,378.852 299.75,378.852 299.75,403.335 309.812,403.335 309.812,378.852 319.204,378.852 
		319.204,369.796 290.358,369.796 	" />
    <polygon fill="#ED1C24" points="269.895,369.796 264.527,389.815 259.16,369.796 241.385,369.796 241.385,403.335 251.446,403.335 
		251.446,376.054 258.757,403.335 270.297,403.335 277.608,376.037 277.608,403.335 287.675,403.335 287.675,369.796 	" />
    <path fill="#ED1C24" d="M344.74,382.36l-12.792,0.024v-3.532h23.479v-9.056h-20.873c-8.478,0-13.01,4.218-13.01,10.488
		s4.526,10.488,13.01,10.488h13.153v3.508h-25.825v9.055h23.22c8.479,0,13.009-4.217,13.009-10.487
		C358.11,386.578,353.219,382.36,344.74,382.36" />
    <path fill="#ED1C24" d="M76.271,369.796L76.271,369.796l13.815,27.065l13.815-27.065h6.215l-16.475,31.932
		c-0.933,1.565-2.323,1.739-3.556,1.739s-2.629-0.174-3.556-1.739l-16.438-31.932H76.271z" />
    <path fill="#ED1C24" d="M130.756,369.796L130.756,369.796l13.815,27.065l13.815-27.065h6.216l-16.475,31.932
		c-0.933,1.565-2.322,1.739-3.556,1.739s-2.63-0.174-3.557-1.739l-16.433-31.932H130.756z" />
    <path fill="#ED1C24" d="M193.983,403.095c-1.191,0.729-2.683,0.355-3.339-0.842l-13.286-26.078l-13.286,26.078
		c-0.656,1.197-2.148,1.57-3.339,0.842l-1.059-0.649c-1.179-0.723-1.625-2.286-0.969-3.484l15.915-29.165h5.488l15.915,29.165
		c0.656,1.198,0.21,2.762-0.975,3.484L193.983,403.095z" />
    <path fill="#ED1C24" d="M114.425,369.725v0.072v31.271c0,1.372,1.053,2.491,2.347,2.491h1.156c1.288,0,2.347-1.119,2.347-2.491
		v-31.271v-0.072H114.425z" />
  </g>
</svg>