<svg width="56" height="56" viewBox="0 0 56 56" fill="none" xmlns="http://www.w3.org/2000/svg">
<rect width="56" height="56" rx="28" fill="#212C42" fill-opacity="0.04"/>
<path d="M41.3333 26.7733V28C41.3317 30.8752 40.4006 33.6729 38.6791 35.9758C36.9575 38.2786 34.5377 39.9633 31.7804 40.7785C29.0232 41.5938 26.0763 41.4959 23.3793 40.4994C20.6822 39.503 18.3795 37.6615 16.8146 35.2494C15.2496 32.8374 14.5063 29.9841 14.6955 27.1151C14.8847 24.2461 15.9962 21.5151 17.8643 19.3294C19.7324 17.1438 22.257 15.6205 25.0615 14.9869C27.8661 14.3532 30.8003 14.6431 33.4266 15.8133" stroke="#32B94A" stroke-width="2" stroke-linecap="round" stroke-linejoin="round"/>
<path d="M41.3333 17.3333L28 30.68L24 26.68" stroke="#32B94A" stroke-width="2" stroke-linecap="round" stroke-linejoin="round"/>
</svg>
