<svg width="40" height="40" viewBox="0 0 40 40" fill="none" xmlns="http://www.w3.org/2000/svg">
<path d="M23.0875 29.7792L27.8375 22.4958L20.5541 27.2458C19.6041 27.0875 18.4958 27.4042 17.7833 28.1167C16.5166 29.3834 16.5166 31.3625 17.7833 32.6292C19.05 33.8959 21.0291 33.8959 22.2958 32.6292C23.0083 31.8375 23.2458 30.8083 23.0875 29.7792Z" stroke="#212C42" stroke-width="2" stroke-miterlimit="10" stroke-linejoin="round"/>
<path d="M28.7083 24.8708C29.7375 26.4542 30.2916 28.3542 30.2916 30.3333H38.2083C38.2083 26.7708 37.1791 23.4458 35.4375 20.5958" stroke="#212C42" stroke-width="2" stroke-miterlimit="10" stroke-linejoin="round"/>
<path d="M22.6917 12.2833C21.8208 12.2042 20.8708 12.125 20 12.125C9.94582 12.125 1.79166 20.2792 1.79166 30.3333H9.70832C9.70832 24.6333 14.3 20.0417 20 20.0417C21.8208 20.0417 23.5625 20.5167 25.0667 21.3875" stroke="#212C42" stroke-width="2" stroke-miterlimit="10" stroke-linejoin="round"/>
<path d="M31.4792 19.25C35.1956 19.25 38.2083 16.2372 38.2083 12.5208C38.2083 8.80438 35.1956 5.79163 31.4792 5.79163C27.7628 5.79163 24.75 8.80438 24.75 12.5208C24.75 16.2372 27.7628 19.25 31.4792 19.25Z" stroke="#212C42" stroke-width="2" stroke-miterlimit="10" stroke-linejoin="round"/>
<path d="M27.9167 13.7083C28.4708 15.1333 29.8958 16.0833 31.4792 16.0833C33.0625 16.0833 34.4875 15.1333 35.0417 13.7083" stroke="#212C42" stroke-width="2" stroke-miterlimit="10" stroke-linejoin="round"/>
</svg>
