<svg width="40" height="40" viewBox="0 0 40 40" fill="none" xmlns="http://www.w3.org/2000/svg">
<path d="M18.4511 31.6703V28.5055C18.4511 28.5055 20.8247 26.7648 20.8247 24.5494V22.4131" stroke="#212C42" stroke-width="2" stroke-miterlimit="10"/>
<path d="M10.301 22.1758C10.301 22.1758 15.4439 17.2703 16.868 15.8461C18.2922 14.422 20.2702 17.6659 18.6087 19.8022C17.7384 20.6725 16.868 21.3846 16.868 21.3846C16.868 21.7011 16.868 22.6505 16.868 22.967C16.868 26.0527 14.0197 26.9231 13.545 26.9231" stroke="#212C42" stroke-width="2" stroke-miterlimit="10"/>
<path d="M20.8242 31.6703H5V38H20.8242V31.6703Z" stroke="#212C42" stroke-width="2" stroke-miterlimit="10"/>
<path d="M8.16455 34.8352H8.95576" stroke="#212C42" stroke-width="2" stroke-miterlimit="10" stroke-linecap="round"/>
<path d="M12.5955 13.9472L8.95595 16.7956C7.84826 17.8241 7.37354 18.378 7.37354 19.9604V25.3406V31.6703" stroke="#212C42" stroke-width="2" stroke-miterlimit="10"/>
<path d="M15.602 17.1121L9.74704 10.9407L18.1339 9.99121L22.0108 2L25.8086 9.99121L34.2745 10.9407L28.2613 17.3494L29.6064 25.3407L22.0108 21.8593L16.6306 24.3121" stroke="#212C42" stroke-width="2" stroke-linecap="round" stroke-linejoin="round"/>
</svg>
