<svg width="40" height="40" viewBox="0 0 40 40" fill="none" xmlns="http://www.w3.org/2000/svg">
<path d="M18.7391 18.4347V16.0868C18.7391 14.5216 16.5478 13.739 14.8261 13.739C13.1044 13.739 10.9131 14.5216 10.9131 16.0868V18.4347H18.7391Z" stroke="#212C42" stroke-width="2" stroke-miterlimit="10"/>
<path d="M14.8261 13.7392C16.2348 13.7392 17.1739 12.7219 17.1739 11.3914V10.6088C17.1739 9.27838 16.2348 8.26099 14.8261 8.26099C13.4174 8.26099 12.4783 9.27838 12.4783 10.6088V11.3914C12.4783 12.7219 13.4174 13.7392 14.8261 13.7392Z" stroke="#212C42" stroke-width="2" stroke-miterlimit="10"/>
<path d="M21.0869 12.1738H29.6956" stroke="#212C42" stroke-width="2" stroke-miterlimit="10"/>
<path d="M21.0869 15.3044H29.6956" stroke="#212C42" stroke-width="2" stroke-miterlimit="10"/>
<path d="M21.0869 18.4348H27.3478" stroke="#212C42" stroke-width="2" stroke-miterlimit="10"/>
<path d="M10.9131 35.6522V25.4783H14.0435V35.6522" stroke="#212C42" stroke-width="2" stroke-miterlimit="10"/>
<path d="M17.1739 35.6521V23.1304H20.3044V35.6521" stroke="#212C42" stroke-width="2" stroke-miterlimit="10"/>
<path d="M23.4348 35.6522V29.3914H26.5652V35.6522" stroke="#212C42" stroke-width="2" stroke-miterlimit="10"/>
<path d="M32.8261 38H7V2H28.913L32.8261 5.91304V38Z" stroke="#212C42" stroke-width="2" stroke-miterlimit="10" stroke-linejoin="round"/>
<path d="M31.2609 7.47823H27.3478V3.56519" stroke="#212C42" stroke-width="2" stroke-miterlimit="10" stroke-linejoin="round"/>
</svg>
