<svg id="Layer_1" data-name="Layer 1" xmlns="http://www.w3.org/2000/svg" xmlns:xlink="http://www.w3.org/1999/xlink" viewBox="0 0 345.3 124.4">
  <defs>
    <style>
      .cls-1 {
        fill: none;
      }

      .cls-2 {
        clip-path: url(#clip-path);
      }

      .cls-3 {
        fill: url(#linear-gradient);
      }

      .cls-4 {
        clip-path: url(#clip-path-2);
      }

      .cls-5 {
        fill: url(#linear-gradient-2);
      }

      .cls-6 {
        fill: #2d327b;
      }
    </style>
    <clipPath id="clip-path" transform="translate(-14.5 -1.8)">
      <path class="cls-1" d="M75.9,62.4l-31.7,6A2.8,2.8,0,0,0,42,70.7l-5.8,32.4a1.4,1.4,0,0,0,2.4,1.3l13-16.1a2.6,2.6,0,0,1,1.6-.9l19.1-3.5a2.5,2.5,0,0,0,2.1-2.1l3.2-17.7a1.5,1.5,0,0,0-1.4-1.7h-.3"/>
    </clipPath>
    <linearGradient id="linear-gradient" x1="3956.83" y1="4734.06" x2="3957.83" y2="4734.06" gradientTransform="matrix(98.06, 0, 0, -98.06, -387982.88, 464310.74)" gradientUnits="userSpaceOnUse">
      <stop offset="0" stop-color="#2d327b"/>
      <stop offset="0.06" stop-color="#35307c"/>
      <stop offset="0.15" stop-color="#492c7d"/>
      <stop offset="0.26" stop-color="#6c2480"/>
      <stop offset="0.39" stop-color="#9b1a84"/>
      <stop offset="0.53" stop-color="#d70c89"/>
      <stop offset="0.57" stop-color="#ea088b"/>
      <stop offset="0.66" stop-color="#eb1973"/>
      <stop offset="0.89" stop-color="#ee403a"/>
      <stop offset="1" stop-color="#ef4f24"/>
    </linearGradient>
    <clipPath id="clip-path-2" transform="translate(-14.5 -1.8)">
      <path class="cls-1" d="M100.6,31.2,49,41.1a3,3,0,0,0-2.2,2.3L43.7,61a1.5,1.5,0,0,0,1.7,1.7L97,52.7a2.5,2.5,0,0,0,2.1-2.1l3.2-17.7a1.5,1.5,0,0,0-1.4-1.7h-.3"/>
    </clipPath>
    <linearGradient id="linear-gradient-2" x1="3957.19" y1="4740.79" x2="3958.19" y2="4740.79" gradientTransform="matrix(88.39, 0, 0, -88.39, -349755.72, 419074.21)" xlink:href="#linear-gradient"/>
  </defs>
  <title>logo 1</title>
  <g>
    <g class="cls-2">
      <rect class="cls-3" x="26.9" y="53.9" width="59.9" height="59.87" transform="translate(-57.8 66.8) rotate(-47.2)"/>
    </g>
    <g class="cls-4">
      <rect class="cls-5" x="41.3" y="14.7" width="63.3" height="64.73" transform="translate(-25.6 66.8) rotate(-47.2)"/>
    </g>
    <polygon class="cls-6" points="115.7 55.9 102.5 55.9 101.4 61.9 114.4 61.9 112.8 71 99.8 71 97.2 85.6 87.8 85.6 94.6 46.7 117.3 46.7 115.7 55.9"/>
    <path class="cls-6" d="M150.8,87.5l-.5-6.6h-12l-3,6.6H124.9l20.2-39h10.4l5.4,39Zm-8.9-14.8h7.8l-1.5-13.4Z" transform="translate(-14.5 -1.8)"/>
    <path class="cls-6" d="M176.4,88.2a17.5,17.5,0,0,1-9.6-2.4,11.7,11.7,0,0,1-4.8-6.7l8.2-2.7c1.8,2.7,4.6,2.9,7,2.9s5-1.7,5.1-4-3-3.5-6.2-4.9-5.4-2.4-7-4.3a9.7,9.7,0,0,1-2-8.2,10.7,10.7,0,0,1,4.8-7.3,15.3,15.3,0,0,1,9.3-2.8,14.7,14.7,0,0,1,8,2.1,13.1,13.1,0,0,1,5,6.3l-8.1,4.3c-1.2-2.5-3-3.8-5.6-3.8s-3.5,1.1-3.8,2.4a3,3,0,0,0,.9,2.6c4.1,3.8,11.6,4.2,13.8,9.5a12,12,0,0,1,.8,6.4,12.4,12.4,0,0,1-5.6,7.9,18,18,0,0,1-10.2,2.7" transform="translate(-14.5 -1.8)"/>
    <polygon class="cls-6" points="210.2 46.7 208.6 55.9 199.5 55.9 194.2 85.6 184.8 85.6 190 55.9 180.9 55.9 182.5 46.7 210.2 46.7"/>
    <path class="cls-6" d="M280.4,87.5,279,77.4H262.9l-5.2,10.1h-5.3l20.7-39h5.5l6.5,39ZM265.2,72.8h13.2l-3.3-18.5Z" transform="translate(-14.5 -1.8)"/>
    <polygon class="cls-6" points="275.2 85.6 282 46.7 285.6 46.7 299.8 76.5 305 46.7 309.9 46.7 303.1 85.6 299.3 85.6 285.3 56 280 85.6 275.2 85.6"/>
    <polygon class="cls-6" points="345.3 46.7 325.4 64.9 338.7 85.6 333.2 85.6 320.3 65.5 316.8 85.6 311.9 85.6 318.7 46.7 323.6 46.7 320.7 63.4 339.1 46.7 345.3 46.7"/>
    <path class="cls-6" d="M252.7,59.4a10.7,10.7,0,0,1-5.3,8,7.9,7.9,0,0,1,3.2,3.8,9.9,9.9,0,0,1,.6,5.5,12.2,12.2,0,0,1-4.1,7.7,13,13,0,0,1-8.6,3.1H222.6l6.9-39h14a9.3,9.3,0,0,1,7.3,3.2,9.3,9.3,0,0,1,1.9,7.7M243.8,81a7.3,7.3,0,0,0,2.5-4.5,6.1,6.1,0,0,0-.8-4.7,4.6,4.6,0,0,0-3.9-1.8h-11l-2.3,12.8h10.8a6.7,6.7,0,0,0,4.7-1.8m4.1-21.9a5,5,0,0,0-.9-4.2,4.4,4.4,0,0,0-3.8-1.8h-9.6l-2.2,12.2h9.9a6.1,6.1,0,0,0,4.2-1.8,7.7,7.7,0,0,0,2.4-4.4" transform="translate(-14.5 -1.8)"/>
  </g>
</svg>
