<svg width="142" height="24" viewBox="0 0 142 24" fill="none" xmlns="http://www.w3.org/2000/svg">
<path d="M5.59375 12.5391H2.55469V11.3125H5.59375C6.18229 11.3125 6.65885 11.2188 7.02344 11.0312C7.38802 10.8438 7.65365 10.5833 7.82031 10.25C7.99219 9.91667 8.07812 9.53646 8.07812 9.10938C8.07812 8.71875 7.99219 8.35156 7.82031 8.00781C7.65365 7.66406 7.38802 7.38802 7.02344 7.17969C6.65885 6.96615 6.18229 6.85938 5.59375 6.85938H2.90625V17H1.39844V5.625H5.59375C6.45312 5.625 7.17969 5.77344 7.77344 6.07031C8.36719 6.36719 8.81771 6.77865 9.125 7.30469C9.43229 7.82552 9.58594 8.42188 9.58594 9.09375C9.58594 9.82292 9.43229 10.4453 9.125 10.9609C8.81771 11.4766 8.36719 11.8698 7.77344 12.1406C7.17969 12.4062 6.45312 12.5391 5.59375 12.5391ZM10.7812 12.8672V12.6875C10.7812 12.0781 10.8698 11.513 11.0469 10.9922C11.224 10.4661 11.4792 10.0104 11.8125 9.625C12.1458 9.23438 12.5495 8.93229 13.0234 8.71875C13.4974 8.5 14.0286 8.39062 14.6172 8.39062C15.2109 8.39062 15.7448 8.5 16.2188 8.71875C16.6979 8.93229 17.1042 9.23438 17.4375 9.625C17.776 10.0104 18.0339 10.4661 18.2109 10.9922C18.388 11.513 18.4766 12.0781 18.4766 12.6875V12.8672C18.4766 13.4766 18.388 14.0417 18.2109 14.5625C18.0339 15.0833 17.776 15.5391 17.4375 15.9297C17.1042 16.3151 16.7005 16.6172 16.2266 16.8359C15.7578 17.0495 15.2266 17.1562 14.6328 17.1562C14.0391 17.1562 13.5052 17.0495 13.0312 16.8359C12.5573 16.6172 12.151 16.3151 11.8125 15.9297C11.4792 15.5391 11.224 15.0833 11.0469 14.5625C10.8698 14.0417 10.7812 13.4766 10.7812 12.8672ZM12.2266 12.6875V12.8672C12.2266 13.2891 12.276 13.6875 12.375 14.0625C12.474 14.4323 12.6224 14.7604 12.8203 15.0469C13.0234 15.3333 13.276 15.5599 13.5781 15.7266C13.8802 15.888 14.2318 15.9688 14.6328 15.9688C15.0286 15.9688 15.375 15.888 15.6719 15.7266C15.974 15.5599 16.224 15.3333 16.4219 15.0469C16.6198 14.7604 16.7682 14.4323 16.8672 14.0625C16.9714 13.6875 17.0234 13.2891 17.0234 12.8672V12.6875C17.0234 12.2708 16.9714 11.8776 16.8672 11.5078C16.7682 11.1328 16.6172 10.8021 16.4141 10.5156C16.2161 10.224 15.9661 9.99479 15.6641 9.82812C15.3672 9.66146 15.0182 9.57812 14.6172 9.57812C14.2214 9.57812 13.8724 9.66146 13.5703 9.82812C13.2734 9.99479 13.0234 10.224 12.8203 10.5156C12.6224 10.8021 12.474 11.1328 12.375 11.5078C12.276 11.8776 12.2266 12.2708 12.2266 12.6875ZM22.4297 15.5L24.6016 8.54688H25.5547L25.3672 9.92969L23.1562 17H22.2266L22.4297 15.5ZM20.9688 8.54688L22.8203 15.5781L22.9531 17H21.9766L19.5234 8.54688H20.9688ZM27.6328 15.5234L29.3984 8.54688H30.8359L28.3828 17H27.4141L27.6328 15.5234ZM25.7656 8.54688L27.8906 15.3828L28.1328 17H27.2109L24.9375 9.91406L24.75 8.54688H25.7656ZM35.8281 17.1562C35.2396 17.1562 34.7057 17.0573 34.2266 16.8594C33.7526 16.6562 33.3438 16.3724 33 16.0078C32.6615 15.6432 32.401 15.2109 32.2188 14.7109C32.0365 14.2109 31.9453 13.6641 31.9453 13.0703V12.7422C31.9453 12.0547 32.0469 11.4427 32.25 10.9062C32.4531 10.3646 32.7292 9.90625 33.0781 9.53125C33.4271 9.15625 33.8229 8.8724 34.2656 8.67969C34.7083 8.48698 35.1667 8.39062 35.6406 8.39062C36.2448 8.39062 36.7656 8.49479 37.2031 8.70312C37.6458 8.91146 38.0078 9.20312 38.2891 9.57812C38.5703 9.94792 38.7786 10.3854 38.9141 10.8906C39.0495 11.3906 39.1172 11.9375 39.1172 12.5312V13.1797H32.8047V12H37.6719V11.8906C37.651 11.5156 37.5729 11.151 37.4375 10.7969C37.3073 10.4427 37.099 10.151 36.8125 9.92188C36.526 9.69271 36.1354 9.57812 35.6406 9.57812C35.3125 9.57812 35.0104 9.64844 34.7344 9.78906C34.4583 9.92448 34.2214 10.1276 34.0234 10.3984C33.8255 10.6693 33.6719 11 33.5625 11.3906C33.4531 11.7812 33.3984 12.2318 33.3984 12.7422V13.0703C33.3984 13.4714 33.4531 13.849 33.5625 14.2031C33.6771 14.5521 33.8411 14.8594 34.0547 15.125C34.2734 15.3906 34.5365 15.599 34.8438 15.75C35.1562 15.901 35.5104 15.9766 35.9062 15.9766C36.4167 15.9766 36.849 15.8724 37.2031 15.6641C37.5573 15.4557 37.8672 15.1771 38.1328 14.8281L39.0078 15.5234C38.8255 15.7995 38.5938 16.0625 38.3125 16.3125C38.0312 16.5625 37.6849 16.7656 37.2734 16.9219C36.8672 17.0781 36.3854 17.1562 35.8281 17.1562ZM42.25 9.875V17H40.8047V8.54688H42.2109L42.25 9.875ZM44.8906 8.5L44.8828 9.84375C44.763 9.81771 44.6484 9.80208 44.5391 9.79688C44.4349 9.78646 44.3151 9.78125 44.1797 9.78125C43.8464 9.78125 43.5521 9.83333 43.2969 9.9375C43.0417 10.0417 42.8255 10.1875 42.6484 10.375C42.4714 10.5625 42.3307 10.7865 42.2266 11.0469C42.1276 11.3021 42.0625 11.5833 42.0312 11.8906L41.625 12.125C41.625 11.6146 41.6745 11.1354 41.7734 10.6875C41.8776 10.2396 42.0365 9.84375 42.25 9.5C42.4635 9.15104 42.7344 8.88021 43.0625 8.6875C43.3958 8.48958 43.7917 8.39062 44.25 8.39062C44.3542 8.39062 44.474 8.40365 44.6094 8.42969C44.7448 8.45052 44.8385 8.47396 44.8906 8.5ZM49.5781 17.1562C48.9896 17.1562 48.4557 17.0573 47.9766 16.8594C47.5026 16.6562 47.0938 16.3724 46.75 16.0078C46.4115 15.6432 46.151 15.2109 45.9688 14.7109C45.7865 14.2109 45.6953 13.6641 45.6953 13.0703V12.7422C45.6953 12.0547 45.7969 11.4427 46 10.9062C46.2031 10.3646 46.4792 9.90625 46.8281 9.53125C47.1771 9.15625 47.5729 8.8724 48.0156 8.67969C48.4583 8.48698 48.9167 8.39062 49.3906 8.39062C49.9948 8.39062 50.5156 8.49479 50.9531 8.70312C51.3958 8.91146 51.7578 9.20312 52.0391 9.57812C52.3203 9.94792 52.5286 10.3854 52.6641 10.8906C52.7995 11.3906 52.8672 11.9375 52.8672 12.5312V13.1797H46.5547V12H51.4219V11.8906C51.401 11.5156 51.3229 11.151 51.1875 10.7969C51.0573 10.4427 50.849 10.151 50.5625 9.92188C50.276 9.69271 49.8854 9.57812 49.3906 9.57812C49.0625 9.57812 48.7604 9.64844 48.4844 9.78906C48.2083 9.92448 47.9714 10.1276 47.7734 10.3984C47.5755 10.6693 47.4219 11 47.3125 11.3906C47.2031 11.7812 47.1484 12.2318 47.1484 12.7422V13.0703C47.1484 13.4714 47.2031 13.849 47.3125 14.2031C47.4271 14.5521 47.5911 14.8594 47.8047 15.125C48.0234 15.3906 48.2865 15.599 48.5938 15.75C48.9062 15.901 49.2604 15.9766 49.6562 15.9766C50.1667 15.9766 50.599 15.8724 50.9531 15.6641C51.3073 15.4557 51.6172 15.1771 51.8828 14.8281L52.7578 15.5234C52.5755 15.7995 52.3438 16.0625 52.0625 16.3125C51.7812 16.5625 51.4349 16.7656 51.0234 16.9219C50.6172 17.0781 50.1354 17.1562 49.5781 17.1562ZM59.8828 15.3594V5H61.3359V17H60.0078L59.8828 15.3594ZM54.1953 12.8672V12.7031C54.1953 12.0573 54.2734 11.4714 54.4297 10.9453C54.5911 10.4141 54.8177 9.95833 55.1094 9.57812C55.4062 9.19792 55.7578 8.90625 56.1641 8.70312C56.5755 8.49479 57.0339 8.39062 57.5391 8.39062C58.0703 8.39062 58.5339 8.48438 58.9297 8.67188C59.3307 8.85417 59.6693 9.1224 59.9453 9.47656C60.2266 9.82552 60.4479 10.2474 60.6094 10.7422C60.7708 11.237 60.8828 11.7969 60.9453 12.4219V13.1406C60.888 13.7604 60.776 14.3177 60.6094 14.8125C60.4479 15.3073 60.2266 15.7292 59.9453 16.0781C59.6693 16.4271 59.3307 16.6953 58.9297 16.8828C58.5286 17.0651 58.0599 17.1562 57.5234 17.1562C57.0286 17.1562 56.5755 17.0495 56.1641 16.8359C55.7578 16.6224 55.4062 16.3229 55.1094 15.9375C54.8177 15.5521 54.5911 15.099 54.4297 14.5781C54.2734 14.0521 54.1953 13.4818 54.1953 12.8672ZM55.6484 12.7031V12.8672C55.6484 13.2891 55.6901 13.6849 55.7734 14.0547C55.862 14.4245 55.9974 14.75 56.1797 15.0312C56.362 15.3125 56.5938 15.5339 56.875 15.6953C57.1562 15.8516 57.4922 15.9297 57.8828 15.9297C58.362 15.9297 58.7552 15.8281 59.0625 15.625C59.375 15.4219 59.625 15.1536 59.8125 14.8203C60 14.487 60.1458 14.125 60.25 13.7344V11.8516C60.1875 11.5651 60.0964 11.2891 59.9766 11.0234C59.862 10.7526 59.7109 10.513 59.5234 10.3047C59.3411 10.0911 59.1146 9.92188 58.8438 9.79688C58.5781 9.67188 58.263 9.60938 57.8984 9.60938C57.5026 9.60938 57.1615 9.69271 56.875 9.85938C56.5938 10.0208 56.362 10.2448 56.1797 10.5312C55.9974 10.8125 55.862 11.1406 55.7734 11.5156C55.6901 11.8854 55.6484 12.2812 55.6484 12.7031ZM67.5469 5H69V15.3594L68.875 17H67.5469V5ZM74.7109 12.7031V12.8672C74.7109 13.4818 74.638 14.0521 74.4922 14.5781C74.3464 15.099 74.1328 15.5521 73.8516 15.9375C73.5703 16.3229 73.2266 16.6224 72.8203 16.8359C72.4141 17.0495 71.9479 17.1562 71.4219 17.1562C70.8854 17.1562 70.4141 17.0651 70.0078 16.8828C69.6068 16.6953 69.2682 16.4271 68.9922 16.0781C68.7161 15.7292 68.4948 15.3073 68.3281 14.8125C68.1667 14.3177 68.0547 13.7604 67.9922 13.1406V12.4219C68.0547 11.7969 68.1667 11.237 68.3281 10.7422C68.4948 10.2474 68.7161 9.82552 68.9922 9.47656C69.2682 9.1224 69.6068 8.85417 70.0078 8.67188C70.4089 8.48438 70.875 8.39062 71.4062 8.39062C71.9375 8.39062 72.4089 8.49479 72.8203 8.70312C73.2318 8.90625 73.5755 9.19792 73.8516 9.57812C74.1328 9.95833 74.3464 10.4141 74.4922 10.9453C74.638 11.4714 74.7109 12.0573 74.7109 12.7031ZM73.2578 12.8672V12.7031C73.2578 12.2812 73.2188 11.8854 73.1406 11.5156C73.0625 11.1406 72.9375 10.8125 72.7656 10.5312C72.5938 10.2448 72.3672 10.0208 72.0859 9.85938C71.8047 9.69271 71.4583 9.60938 71.0469 9.60938C70.6823 9.60938 70.3646 9.67188 70.0938 9.79688C69.8281 9.92188 69.6016 10.0911 69.4141 10.3047C69.2266 10.513 69.0729 10.7526 68.9531 11.0234C68.8385 11.2891 68.7526 11.5651 68.6953 11.8516V13.7344C68.7786 14.099 68.9141 14.4505 69.1016 14.7891C69.2943 15.1224 69.5495 15.3958 69.8672 15.6094C70.1901 15.8229 70.5885 15.9297 71.0625 15.9297C71.4531 15.9297 71.7865 15.8516 72.0625 15.6953C72.3438 15.5339 72.5703 15.3125 72.7422 15.0312C72.9193 14.75 73.0495 14.4245 73.1328 14.0547C73.2161 13.6849 73.2578 13.2891 73.2578 12.8672ZM78.8203 16.125L81.1719 8.54688H82.7188L79.3281 18.3047C79.25 18.513 79.1458 18.737 79.0156 18.9766C78.8906 19.2214 78.7292 19.4531 78.5312 19.6719C78.3333 19.8906 78.0938 20.0677 77.8125 20.2031C77.5365 20.3438 77.2057 20.4141 76.8203 20.4141C76.7057 20.4141 76.5599 20.3984 76.3828 20.3672C76.2057 20.3359 76.0807 20.3099 76.0078 20.2891L76 19.1172C76.0417 19.1224 76.1068 19.1276 76.1953 19.1328C76.2891 19.1432 76.3542 19.1484 76.3906 19.1484C76.7188 19.1484 76.9974 19.1042 77.2266 19.0156C77.4557 18.9323 77.6484 18.7891 77.8047 18.5859C77.9661 18.388 78.1042 18.1146 78.2188 17.7656L78.8203 16.125ZM77.0938 8.54688L79.2891 15.1094L79.6641 16.6328L78.625 17.1641L75.5156 8.54688H77.0938Z" fill="#212C42"/>
<path d="M112.608 6.36861C112.194 5.68241 111.617 5.10538 110.923 4.6843C111.61 4.27102 112.187 3.69399 112.608 3C113.021 3.6862 113.598 4.26323 114.292 4.6843C113.598 5.10538 113.021 5.68241 112.608 6.36861Z" fill="#007AFF"/>
<path d="M140.204 6.36861C139.79 5.68241 139.213 5.10538 138.519 4.6843C139.206 4.27102 139.783 3.69399 140.204 3C140.617 3.6862 141.194 4.26323 141.888 4.6843C141.194 5.10538 140.617 5.68241 140.204 6.36861Z" fill="#007AFF"/>
<path d="M87.3977 10.0257C87.3977 8.56755 88.7701 7.56165 90.548 7.56165C92.1855 7.56165 93.4799 8.41939 93.8776 9.76839L92.5909 10.1505C92.357 9.33172 91.6162 8.80928 90.548 8.80928C89.6122 8.80928 88.7389 9.19136 88.7389 9.97893C88.7389 10.6651 89.2067 10.9536 91.0314 11.3669C92.6689 11.749 94.3454 12.1545 94.3454 13.9636C94.3454 15.8896 92.4506 16.7629 90.8131 16.7629C89.0898 16.7629 87.3353 16.0299 87 13.9246L88.3178 13.714C88.5595 15.0864 89.581 15.5075 90.8131 15.5075C91.6474 15.5075 93.0042 15.0552 93.0042 14.0337C93.0042 13.3397 92.5364 13.0512 90.7117 12.6301C89.0742 12.2559 87.3977 11.8504 87.3977 10.0257Z" fill="#212C42"/>
<path d="M103.96 15.2814V16.5368H103.367C102.712 16.5368 102.166 16.0689 102.05 15.4451H101.901C101.207 16.2873 100.209 16.7863 99.0318 16.7863C96.7237 16.7863 95.1174 14.8915 95.1174 12.1779C95.1174 9.4643 96.7237 7.56946 99.0318 7.56946C100.209 7.56946 101.207 8.06071 101.901 8.91066H102.026V7.81898H103.367V14.9383C103.367 15.1254 103.515 15.2736 103.703 15.2736H103.96V15.2814ZM102.034 12.1857C102.042 10.4624 101.122 8.84048 99.2423 8.84048C97.3631 8.84828 96.4586 10.4702 96.4508 12.1857C96.4586 13.9168 97.3553 15.5387 99.2423 15.5309C101.114 15.5387 102.034 13.9168 102.034 12.1857Z" fill="#212C42"/>
<path d="M110.284 15.2814V16.5368H108.943C107.305 16.5368 106.33 15.5465 106.33 13.8934V9.09784H104.576V7.84241H106.33V4.88708H107.672V7.83461H110.284V9.09004H107.672V13.9714C107.672 14.7668 108.139 15.2814 108.943 15.2814H110.284Z" fill="#212C42"/>
<path d="M113.278 16.5368H111.937V7.83459H113.278V16.5368Z" fill="#212C42"/>
<path d="M115.15 10.0257C115.15 8.56755 116.522 7.56165 118.3 7.56165C119.937 7.56165 121.232 8.41939 121.63 9.76839L120.343 10.1505C120.109 9.33172 119.368 8.80928 118.3 8.80928C117.364 8.80928 116.491 9.19136 116.491 9.97893C116.491 10.6651 116.959 10.9536 118.783 11.3669C120.421 11.749 122.097 12.1545 122.097 13.9636C122.097 15.8896 120.203 16.7629 118.565 16.7629C116.842 16.7629 115.087 16.0299 114.752 13.9246L116.07 13.714C116.312 15.0864 117.333 15.5075 118.565 15.5075C119.399 15.5075 120.756 15.0552 120.756 14.0337C120.756 13.3397 120.288 13.0512 118.464 12.6301C116.826 12.2559 115.15 11.8504 115.15 10.0257Z" fill="#212C42"/>
<path d="M127.096 5.13659C126.293 5.13659 125.825 5.64345 125.825 6.44661V7.8424H128.437V9.09783L125.825 9.09003V16.5368H124.484V9.09003H122.721V7.8346H124.484V6.52459C124.484 4.86368 125.458 3.88116 127.096 3.88116H128.437V5.13659H127.096Z" fill="#212C42"/>
<path d="M137.864 15.2814V16.5368H137.28C136.625 16.5368 136.079 16.0689 135.962 15.4451H135.814C135.12 16.2873 134.122 16.7863 132.944 16.7863C130.636 16.7863 129.022 14.8915 129.022 12.1779C129.022 9.4643 130.628 7.56946 132.944 7.56946C134.122 7.56946 135.12 8.06071 135.814 8.91066H135.938V7.81898H137.28V14.9383C137.28 15.1254 137.428 15.2736 137.615 15.2736H137.864V15.2814ZM135.938 12.1857C135.946 10.4624 135.026 8.84048 133.147 8.84048C131.268 8.84828 130.363 10.4702 130.355 12.1857C130.363 13.9168 131.26 15.5387 133.147 15.5309C135.026 15.5387 135.946 13.9168 135.938 12.1857Z" fill="#007AFF"/>
<path d="M140.874 16.5368H139.533V7.83459H140.874V16.5368Z" fill="#007AFF"/>
</svg>
