<svg width="55" height="14" viewBox="0 0 55 14" fill="none" xmlns="http://www.w3.org/2000/svg">
<path d="M25.6077 3.36861C25.1944 2.68241 24.6174 2.10538 23.9234 1.6843C24.6096 1.27102 25.1866 0.693995 25.6077 0C26.021 0.686197 26.598 1.26323 27.292 1.6843C26.598 2.10538 26.021 2.68241 25.6077 3.36861Z" fill="#007AFF"/>
<path d="M53.2036 3.36861C52.7904 2.68241 52.2133 2.10538 51.5193 1.6843C52.2055 1.27102 52.7826 0.693995 53.2036 0C53.6169 0.686197 54.194 1.26323 54.8879 1.6843C54.194 2.10538 53.6169 2.68241 53.2036 3.36861Z" fill="#007AFF"/>
<path d="M0.397685 7.02572C0.397685 5.56755 1.77008 4.56165 3.54795 4.56165C5.18547 4.56165 6.47989 5.41939 6.87757 6.76839L5.59095 7.15048C5.35702 6.33172 4.61624 5.80928 3.54795 5.80928C2.61223 5.80928 1.73889 6.19136 1.73889 6.97893C1.73889 7.66513 2.20675 7.95364 4.03141 8.36692C5.66893 8.74901 7.34543 9.15449 7.34543 10.9636C7.34543 12.8896 5.45059 13.7629 3.81308 13.7629C2.08978 13.7629 0.335301 13.0299 0 10.9246L1.31781 10.714C1.55954 12.0864 2.58104 12.5075 3.81308 12.5075C4.64743 12.5075 6.00423 12.0552 6.00423 11.0337C6.00423 10.3397 5.53637 10.0512 3.71171 9.63015C2.07419 9.25586 0.397685 8.85038 0.397685 7.02572Z" fill="#212C42"/>
<path d="M16.96 12.2814V13.5368H16.3673C15.7123 13.5368 15.1665 13.069 15.0495 12.4452H14.9014C14.2074 13.2873 13.2093 13.7864 12.0318 13.7864C9.7237 13.7864 8.11737 11.8915 8.11737 9.17793C8.11737 6.46433 9.7237 4.56949 12.0318 4.56949C13.2093 4.56949 14.2074 5.06074 14.9014 5.91069H15.0261V4.81901H16.3673V11.9383C16.3673 12.1255 16.5155 12.2736 16.7026 12.2736H16.96V12.2814ZM15.0339 9.18572C15.0417 7.46243 14.1216 5.84051 12.2423 5.84051C10.3631 5.84831 9.45857 7.47023 9.45077 9.18572C9.45857 10.9168 10.3553 12.5387 12.2423 12.5309C14.1138 12.5387 15.0339 10.9168 15.0339 9.18572Z" fill="#212C42"/>
<path d="M23.2838 12.2814V13.5368H21.9426C20.3051 13.5368 19.3304 12.5465 19.3304 10.8934V6.09781H17.5759V4.84238H19.3304V1.88705H20.6716V4.83458H23.2838V6.09001H20.6716V10.9714C20.6716 11.7667 21.1395 12.2814 21.9426 12.2814H23.2838Z" fill="#212C42"/>
<path d="M26.2782 13.5368H24.937V4.83456H26.2782V13.5368Z" fill="#212C42"/>
<path d="M28.1497 7.02572C28.1497 5.56755 29.5221 4.56165 31.3 4.56165C32.9375 4.56165 34.2319 5.41939 34.6296 6.76839L33.343 7.15048C33.109 6.33172 32.3682 5.80928 31.3 5.80928C30.3642 5.80928 29.4909 6.19136 29.4909 6.97893C29.4909 7.66513 29.9588 7.95364 31.7834 8.36692C33.4209 8.74901 35.0974 9.15449 35.0974 10.9636C35.0974 12.8896 33.2026 13.7629 31.5651 13.7629C29.8418 13.7629 28.0873 13.0299 27.752 10.9246L29.0698 10.714C29.3116 12.0864 30.3331 12.5075 31.5651 12.5075C32.3994 12.5075 33.7562 12.0552 33.7562 11.0337C33.7562 10.3397 33.2884 10.0512 31.4637 9.63015C29.8262 9.25586 28.1497 8.85038 28.1497 7.02572Z" fill="#212C42"/>
<path d="M40.0958 2.13656C39.2927 2.13656 38.8248 2.64342 38.8248 3.44658V4.84236H41.437V6.09779L38.8248 6.09V13.5368H37.4836V6.09H35.7213V4.83457H37.4836V3.52455C37.4836 1.86365 38.4583 0.881134 40.0958 0.881134H41.437V2.13656H40.0958Z" fill="#212C42"/>
<path d="M50.8644 12.2814V13.5368H50.2796C49.6246 13.5368 49.0788 13.069 48.9618 12.4452H48.8136C48.1196 13.2873 47.1215 13.7864 45.9441 13.7864C43.636 13.7864 42.0219 11.8915 42.0219 9.17793C42.0219 6.46433 43.6282 4.56949 45.9441 4.56949C47.1215 4.56949 48.1196 5.06074 48.8136 5.91069H48.9384V4.81901H50.2796V11.9383C50.2796 12.1255 50.4278 12.2736 50.6149 12.2736H50.8644V12.2814ZM48.9384 9.18572C48.9462 7.46243 48.0261 5.84051 46.1468 5.84051C44.2676 5.84831 43.3631 7.47023 43.3553 9.18572C43.3631 10.9168 44.2598 12.5387 46.1468 12.5309C48.0261 12.5387 48.9462 10.9168 48.9384 9.18572Z" fill="#007AFF"/>
<path d="M53.8744 13.5368H52.5332V4.83456H53.8744V13.5368Z" fill="#007AFF"/>
</svg>
